<?xml version="1.0" encoding="UTF-8" standalone="no"?>
<!-- Created with Inkscape (http://www.inkscape.org/) -->

<svg
   xmlns:dc="http://purl.org/dc/elements/1.1/"
   xmlns:cc="http://creativecommons.org/ns#"
   xmlns:rdf="http://www.w3.org/1999/02/22-rdf-syntax-ns#"
   xmlns:svg="http://www.w3.org/2000/svg"
   xmlns="http://www.w3.org/2000/svg"
   xmlns:sodipodi="http://sodipodi.sourceforge.net/DTD/sodipodi-0.dtd"
   xmlns:inkscape="http://www.inkscape.org/namespaces/inkscape"
   width="210mm"
   height="297mm"
   viewBox="0 0 210 297"
   version="1.1"
   id="svg5899"
   inkscape:version="0.92.3 (2405546, 2018-03-11)"
   sodipodi:docname="log.svg">
  <defs
     id="defs5893" />
  <sodipodi:namedview
     id="base"
     pagecolor="#ffffff"
     bordercolor="#666666"
     borderopacity="1.0"
     inkscape:pageopacity="0.0"
     inkscape:pageshadow="2"
     inkscape:zoom="0.35"
     inkscape:cx="-137.14286"
     inkscape:cy="560"
     inkscape:document-units="mm"
     inkscape:current-layer="layer1"
     showgrid="false"
     inkscape:window-width="1366"
     inkscape:window-height="703"
     inkscape:window-x="0"
     inkscape:window-y="0"
     inkscape:window-maximized="1" />
  <metadata
     id="metadata5896">
    <rdf:RDF>
      <cc:Work
         rdf:about="">
        <dc:format>image/svg+xml</dc:format>
        <dc:type
           rdf:resource="http://purl.org/dc/dcmitype/StillImage" />
        <dc:title></dc:title>
      </cc:Work>
    </rdf:RDF>
  </metadata>
  <g
     inkscape:label="Layer 1"
     inkscape:groupmode="layer"
     id="layer1">
    <g
       id="g5605"
       transform="matrix(0.04776707,0,0,-0.04310514,-44.38581,319.52632)"
       inkscape:export-xdpi="96"
       inkscape:export-ydpi="96">
      <path
         inkscape:connector-curvature="0"
         id="path436"
         style="fill:#2d4058;fill-opacity:1;fill-rule:nonzero;stroke:none"
         d="m 2175.85,5128.57 c -347.95,0 -630.02,282.07 -630.02,630.02 0,347.95 282.07,630.02 630.02,630.02 347.95,0 630.02,-282.07 630.02,-630.02 0,-347.95 -282.07,-630.02 -630.02,-630.02 z m 702.08,780.6 c 0,57.15 -22.23,41.28 -79.38,66.68 -57.16,25.4 47.63,60.33 47.63,114.31 0,53.98 -98.44,41.28 -101.61,95.26 -3.18,53.99 -57.16,22.23 -66.69,73.04 -9.52,50.8 -57.15,6.35 -57.15,41.28 0,34.93 -47.64,9.52 -47.64,66.68 0,57.16 -122.37,-31.68 -119.19,41.35 3.18,73.04 -52.71,59.9 -68.15,50.74 -57.02,-33.84 -34.93,-6.35 -73.04,-28.58 -38.1,-22.23 -42.46,-36.8 -61.51,14.01 -19.05,50.81 -71.03,46.68 -102.78,11.75 -31.76,-34.93 -60.29,-17.5 -82.52,11.08 -22.22,28.58 -140.59,-14.61 -159.64,-78.12 -19.05,-63.51 -57.16,-38.11 -104.79,-19.05 -47.63,19.05 -48.19,-45.08 -82.55,-69.86 -22.69,-16.36 -50.81,-31.76 -92.09,-53.98 -41.28,-22.23 -38.11,-92.09 -76.21,-133.37 -38.11,-41.28 -44.46,-142.89 -66.68,-238.15 -22.23,-95.27 -28.58,-120.67 -34.93,-181 -6.35,-60.33 61.42,-94.14 83.65,-167.18 22.22,-73.03 14.78,-163.06 8.43,-217.04 -6.35,-53.99 180.9,-65.3 190.43,-135.16 9.52,-69.86 142.99,-87.12 181.09,-87.12 38.11,0 57.16,-60.33 88.91,-34.93 31.76,25.4 120.67,-44.46 155.6,-25.4 34.93,19.05 123.84,-47.63 154.03,0 30.2,47.63 163.51,25.4 182.56,63.5 19.05,38.11 104.79,6.35 104.79,50.81 0,44.46 50.8,76.21 82.56,82.56 31.75,6.35 82.56,31.75 98.43,92.09 15.88,60.33 12.71,31.75 41.29,53.98 28.57,22.23 -0.66,79.49 5.69,120.77 6.35,41.28 50.37,38.98 59.9,98.24 9.53,59.25 -11.61,76.3 -8.44,108.05 3.18,31.76 -12.7,69.86 15.88,98.44 28.58,28.58 -15.88,57.16 -15.88,114.32" />
      <path
         inkscape:connector-curvature="0"
         id="path438"
         style="fill:#2d4058;fill-opacity:1;fill-rule:nonzero;stroke:none"
         d="m 2170.13,6333.62 c -38.31,0 -173.57,-15.26 -273.34,-57.21 -86.74,-36.46 -130.07,-89.8 -168.32,-136.86 -7.13,-8.76 -14.08,-17.31 -21.08,-25.5 -45.38,-52.94 -88.39,-167.03 -106.23,-230.81 -18.9,-67.48 -3.57,-230.59 22.21,-325.85 25.55,-94.36 111.11,-186.54 173.25,-247.66 49.57,-48.77 137.19,-91.37 260.42,-126.63 82.31,-23.53 163.55,-10.6 249.58,3.1 l 5.46,0.87 c 98.24,15.64 220.06,106.08 255.06,133.41 36.64,28.64 63.96,75.14 92.88,124.36 18.91,32.2 38.48,65.5 62.23,96.91 47.17,62.37 44.66,146.25 42.23,227.38 -0.57,19.41 -1.18,39.47 -1.04,58.6 0.47,61.38 -22.18,105.46 -44.06,148.08 -12.19,23.72 -23.69,46.11 -30.53,70.27 -11.38,40.29 -34.76,58.09 -59.51,76.92 -14.37,10.95 -29.24,22.26 -42.52,38.34 -30.65,37.1 -94.66,75.48 -156.57,112.59 l -25.77,15.5 c -60.18,36.43 -122.57,39.21 -194.81,42.41 -11.27,0.5 -22.73,1.01 -34.38,1.67 -1.43,0.08 -3.16,0.11 -5.16,0.11 z m -14.09,-1177.95 c -34.23,0 -68.38,3.72 -102.96,13.61 -125.56,35.93 -215.24,79.73 -266.54,130.2 -63.33,62.3 -150.6,156.43 -177.04,254.14 -26.27,97.06 -41.69,263.86 -22.19,333.5 18.18,65 62.27,181.57 109.16,236.28 6.93,8.09 13.8,16.56 20.84,25.22 39.31,48.36 83.86,103.18 173.92,141.05 108.68,45.71 253.64,60.04 284.86,58.19 h 0.01 c 11.58,-0.65 22.98,-1.15 34.2,-1.66 71.13,-3.16 138.31,-6.15 201.63,-44.48 l 25.71,-15.45 c 62.95,-37.74 128.04,-76.77 160.27,-115.78 12.22,-14.78 26.41,-25.59 40.14,-36.05 25.55,-19.43 51.94,-39.53 64.65,-84.46 6.43,-22.77 17.62,-44.54 29.45,-67.6 21.65,-42.11 46.16,-89.84 45.67,-154.76 -0.14,-18.87 0.43,-37.9 1.04,-58.06 2.5,-83.62 5.08,-170.07 -45.15,-236.49 -23.24,-30.73 -42.59,-63.66 -61.29,-95.52 -29.64,-50.43 -57.63,-98.07 -96.44,-128.38 -35.67,-27.88 -160,-120.12 -261.65,-136.31 l -5.45,-0.85 c -52.14,-8.31 -102.57,-16.34 -152.84,-16.34" />
      <path
         inkscape:connector-curvature="0"
         id="path440"
         style="fill:#2d4058;fill-opacity:1;fill-rule:nonzero;stroke:none"
         d="m 2149.34,6264.49 c -55.73,0 -160.19,-6.37 -232.39,-36.72 -66.96,-28.15 -108.22,-88.74 -141.38,-137.41 -11.69,-17.17 -22.74,-33.4 -33.45,-45.9 -31.85,-37.17 -57.64,-98.03 -76.65,-180.89 -35.32,-154.03 -16.83,-216.52 6.58,-295.61 l 1.31,-4.42 c 21.15,-71.59 87.94,-135.56 141.61,-186.96 8.5,-8.16 16.7,-16 24.38,-23.56 46.82,-46.06 126.93,-67.54 197.6,-86.5 12.89,-3.46 25.37,-6.8 37.17,-10.18 73.55,-21.06 144.67,-25 223.84,-12.38 62.61,9.95 134.18,68.94 186.45,112.03 11.51,9.49 22.22,18.32 31.91,25.87 40.74,31.84 72.47,75.85 109.21,126.8 11.87,16.47 24.18,33.55 37.4,51 41.84,55.34 39.61,129.93 37.46,202.08 -0.51,17.29 -1.05,35.19 -0.92,52.26 0.41,54.5 -19.73,93.7 -39.18,131.59 -10.88,21.17 -21.15,41.15 -27.25,62.75 -10.08,35.65 -30.8,51.43 -52.75,68.12 -12.84,9.78 -26.14,19.91 -38.03,34.3 -27.21,32.94 -84.15,67.07 -139.21,100.09 l -23.03,13.86 c -53.48,32.36 -108.97,34.83 -173.23,37.68 -10.05,0.45 -20.26,0.9 -30.63,1.49 -6.6,0.36 -15.75,0.61 -26.82,0.61 z m 61.58,-1042.08 c -47.66,0 -93.71,6.65 -140.76,20.12 -11.73,3.35 -24.13,6.68 -36.93,10.1 -72.4,19.43 -154.44,41.43 -203.96,90.15 -7.63,7.51 -15.79,15.31 -24.24,23.41 -54.91,52.58 -123.22,118.01 -145.46,193.28 l -1.3,4.42 c -23.06,77.9 -42.98,145.19 -6.81,302.9 19.54,85.14 46.37,148.07 79.74,187.02 10.19,11.89 21.03,27.8 32.5,44.65 34.21,50.23 76.8,112.76 147.69,142.56 106.07,44.6 263.98,37.33 265.55,37.2 h 0.02 c 10.32,-0.57 20.48,-1.02 30.46,-1.47 63.47,-2.82 123.43,-5.49 180.04,-39.74 l 22.98,-13.83 c 56.11,-33.64 114.12,-68.43 142.91,-103.27 10.83,-13.11 23.45,-22.72 35.65,-32.01 22.85,-17.39 46.49,-35.39 57.88,-75.66 5.71,-20.21 15.65,-39.57 26.2,-60.08 19.31,-37.61 41.2,-80.23 40.76,-138.27 -0.12,-16.8 0.38,-33.76 0.92,-51.72 2.23,-74.63 4.53,-151.8 -40.38,-211.18 -13.13,-17.37 -25.37,-34.36 -37.19,-50.74 -37.38,-51.83 -69.67,-96.62 -112.03,-129.71 -9.59,-7.49 -20.2,-16.25 -31.61,-25.64 -53.53,-44.14 -126.86,-104.57 -193.35,-115.15 -30.73,-4.89 -60.31,-7.34 -89.28,-7.34" />
      <path
         inkscape:connector-curvature="0"
         id="path442"
         style="fill:#2d4058;fill-opacity:1;fill-rule:nonzero;stroke:none"
         d="m 2141.99,6230.51 c -52.54,0 -89.58,-10.97 -132,-23.52 l -3.93,-1.16 c -63.97,-18.9 -121.25,-78.69 -167.27,-126.73 -7.31,-7.64 -14.37,-15.01 -21.16,-21.9 -41.14,-41.84 -60.38,-113.55 -77.35,-176.82 -3.1,-11.57 -6.12,-22.79 -9.15,-33.39 -18.84,-65.84 -22.37,-129.5 -11.08,-200.34 8.89,-55.95 61.7,-120.02 100.27,-166.81 8.52,-10.34 16.45,-19.95 23.23,-28.66 28.5,-36.46 67.92,-64.87 113.57,-97.79 14.76,-10.64 30.08,-21.68 45.71,-33.51 49.42,-37.36 116.16,-35.41 180.7,-33.44 15.9,0.46 31.7,0.95 46.9,0.83 h 1.46 c 47.93,0 82.62,17.81 116.19,35.05 19.01,9.76 36.95,18.98 56.39,24.49 31.71,8.95 45.15,26.58 60.69,47.01 8.8,11.56 17.9,23.5 30.87,34.21 29.46,24.33 60.05,75.38 89.64,124.74 l 12.37,20.57 c 28.92,47.77 31.12,97.44 33.68,154.97 0.4,9 0.81,18.15 1.33,27.46 1.97,35.57 0.25,154.59 -32.32,232.08 -25.15,59.83 -79.37,96.75 -122.95,126.43 -15.41,10.5 -29.97,20.41 -41.2,30.04 -33.25,28.5 -87.7,51.57 -161.86,68.57 -55.36,12.69 -97.52,17.62 -132.73,17.62 z m -2.14,-959.32 c -52.47,0 -103.93,5.63 -145.69,37.23 -15.56,11.75 -30.77,22.73 -45.45,33.32 -46.53,33.55 -86.73,62.53 -116.48,100.6 -6.72,8.6 -14.58,18.12 -23,28.36 -39.62,48.07 -93.87,113.88 -103.39,173.69 -11.62,72.98 -7.97,138.63 11.47,206.56 3.01,10.53 6,21.66 9.09,33.15 17.43,64.98 37.19,138.65 80.99,183.18 6.73,6.85 13.75,14.18 21.03,21.77 47.19,49.26 105.93,110.58 173.57,130.56 l 3.93,1.17 c 69.94,20.7 130.38,38.6 272,6.12 76.46,-17.54 132.98,-41.64 168.01,-71.66 10.62,-9.11 24.87,-18.81 39.95,-29.08 45.14,-30.74 101.31,-68.99 128.11,-132.76 40.06,-95.29 33.49,-237.03 33.41,-238.43 v -0.01 c -0.52,-9.24 -0.91,-18.34 -1.32,-27.3 -2.53,-57.01 -4.93,-110.86 -35.74,-161.77 L 2598,5545.37 c -30.22,-50.4 -61.45,-102.51 -92.81,-128.43 -11.7,-9.66 -20.29,-20.93 -28.59,-31.84 -15.68,-20.58 -31.88,-41.86 -68.23,-52.14 -18.05,-5.09 -35.37,-13.99 -53.74,-23.43 -33.45,-17.18 -71.34,-36.64 -122.77,-36.64 -2.09,0.01 -4.15,0.01 -6.24,0.01 -13.62,0 -27.58,-0.42 -41.66,-0.84 -14.65,-0.43 -29.42,-0.87 -44.11,-0.87" />
      <path
         inkscape:connector-curvature="0"
         id="path444"
         style="fill:#2d4058;fill-opacity:1;fill-rule:nonzero;stroke:none"
         d="m 2145.4,6182.75 c -46.81,0 -79.81,-9.78 -117.59,-20.95 l -3.55,-1.05 c -56.93,-16.82 -107.99,-70.13 -149.01,-112.95 -6.53,-6.82 -12.83,-13.4 -18.88,-19.55 -36.6,-37.2 -53.74,-101.12 -68.88,-157.53 -2.76,-10.32 -5.44,-20.31 -8.15,-29.78 -16.78,-58.68 -19.92,-115.41 -9.87,-178.54 7.9,-49.74 54.99,-106.85 89.35,-148.56 7.61,-9.22 14.69,-17.8 20.74,-25.57 25.37,-32.45 60.52,-57.79 101.22,-87.13 13.18,-9.51 26.86,-19.38 40.84,-29.95 43.9,-33.19 103.3,-31.42 160.81,-29.71 14.22,0.43 28.35,0.89 41.92,0.75 42.79,0.17 74.48,15.71 104.68,31.21 16.98,8.73 33.04,16.98 50.47,21.91 28.06,7.93 39.96,23.59 53.76,41.7 7.88,10.34 16.04,21.05 27.69,30.67 26.17,21.61 53.4,67.05 79.75,110.99 l 11.15,18.53 c 25.71,42.47 27.67,86.74 29.94,137.98 0.37,8.04 0.73,16.21 1.2,24.52 1.75,31.72 0.25,137.78 -28.8,206.85 -22.36,53.21 -70.65,86.1 -109.47,112.54 -13.79,9.39 -26.8,18.25 -36.85,26.87 -29.6,25.35 -78.1,45.89 -144.17,61.04 -49.34,11.31 -86.92,15.71 -118.3,15.71 z m -1.92,-856.41 c -46.99,0 -93.07,5.05 -130.54,33.39 -13.88,10.51 -27.47,20.29 -40.57,29.74 -41.6,29.99 -77.51,55.89 -104.13,89.96 -5.99,7.66 -13,16.14 -20.51,25.27 -35.42,42.97 -83.93,101.84 -92.47,155.45 -10.37,65.27 -7.12,123.96 10.26,184.75 2.68,9.38 5.35,19.31 8.09,29.54 15.6,58.12 33.26,123.99 72.51,163.89 6.01,6.11 12.27,12.65 18.76,19.41 42.2,44.06 94.72,98.89 155.31,116.79 l 3.53,1.06 c 62.55,18.5 116.55,34.49 243.18,5.46 68.37,-15.68 118.94,-37.26 150.32,-64.13 9.46,-8.12 22.15,-16.76 35.59,-25.92 40.37,-27.5 90.63,-61.73 114.64,-118.85 35.85,-85.27 29.96,-211.94 29.89,-213.19 v -0.02 c -0.47,-8.25 -0.82,-16.37 -1.18,-24.37 -2.26,-50.99 -4.41,-99.16 -32.01,-144.77 l -11.12,-18.49 c -26.97,-44.98 -54.85,-91.49 -82.93,-114.68 -10.37,-8.56 -18.01,-18.59 -25.39,-28.3 -14.07,-18.46 -28.62,-37.57 -61.31,-46.82 -16.03,-4.54 -31.46,-12.47 -47.82,-20.86 -29.94,-15.39 -63.85,-32.8 -109.94,-32.8 -1.83,0 -3.76,0.02 -5.65,0.02 -12.15,0 -24.57,-0.37 -37.14,-0.75 -13.08,-0.39 -26.26,-0.78 -39.37,-0.78" />
      <path
         inkscape:connector-curvature="0"
         id="path446"
         style="fill:#2d4058;fill-opacity:1;fill-rule:nonzero;stroke:none"
         d="m 2179.16,5416.28 c 28.14,-1.39 122.21,0.31 183.32,26.31 46.97,20.01 75.94,62.95 99.23,97.46 8.28,12.28 16.11,23.89 23.76,32.89 22.34,26.28 40.34,69.34 53.51,127.98 24.52,109.15 11.26,153.3 -5.56,209.19 l -0.93,3.13 c -15.11,50.32 -62.6,95.4 -100.76,131.63 -6.06,5.76 -11.93,11.33 -17.4,16.66 -33.04,32.22 -89.77,47.19 -139.83,60.39 -9.2,2.41 -18.12,4.77 -26.56,7.14 -52.07,14.67 -102.39,17.23 -158.32,8.07 -43.95,-7.18 -94.42,-49.16 -131.27,-79.81 -8.18,-6.79 -15.77,-13.11 -22.65,-18.53 -28.64,-22.59 -50.99,-53.86 -76.88,-90.09 -8.39,-11.76 -17.11,-23.96 -26.44,-36.43 -29.18,-38.9 -27.37,-91.57 -25.61,-142.5 0.42,-12.64 0.85,-25.12 0.81,-37.26 -0.12,-38.24 14.2,-65.83 28.05,-92.5 7.84,-15.11 15.25,-29.37 19.71,-44.9 7.09,-24.67 20.95,-35.11 36.98,-47.21 9.27,-6.99 18.84,-14.22 27.49,-24.6 19.2,-23.05 59.59,-47.03 98.65,-70.22 l 16.57,-9.87 c 37.66,-22.56 76.87,-24.13 122.29,-25.96 7.16,-0.29 14.44,-0.59 21.84,-0.97 z m 16.13,-14.63 c -10.37,0 -16.61,0.27 -16.86,0.29 -7.35,0.37 -14.57,0.66 -21.69,0.95 -45.4,1.81 -88.3,3.54 -129.1,27.99 l -16.51,9.83 c -40.11,23.82 -81.58,48.43 -102.36,73.38 -7.59,9.11 -16.49,15.84 -25.11,22.34 -16.58,12.51 -33.72,25.44 -42.13,54.69 -4.07,14.17 -11.16,27.81 -18.66,42.26 -13.97,26.91 -29.79,57.39 -29.66,99.18 0.04,11.96 -0.38,24.26 -0.82,36.71 -1.82,53.42 -3.72,108.68 28.47,151.62 9.28,12.39 17.93,24.49 26.27,36.17 26.52,37.12 49.42,69.17 79.67,93.02 6.78,5.35 14.29,11.6 22.35,18.29 38.13,31.72 90.34,75.12 138.14,82.94 58.12,9.51 110.39,6.84 164.55,-8.41 8.35,-2.35 17.2,-4.69 26.32,-7.09 51.78,-13.64 110.46,-29.11 146.2,-63.97 5.44,-5.31 11.25,-10.82 17.27,-16.55 39.39,-37.39 88.42,-83.94 104.62,-137.92 l 0.94,-3.12 c 16.72,-55.62 31.17,-103.64 5.83,-216.47 -13.69,-60.95 -32.73,-106.07 -56.6,-134.15 -7.13,-8.39 -14.74,-19.68 -22.79,-31.62 -24.35,-36.08 -54.64,-80.98 -105.52,-102.64 -58.26,-24.8 -138.37,-27.72 -172.82,-27.72" />
      <path
         inkscape:connector-curvature="0"
         id="path448"
         style="fill:#2d4058;fill-opacity:1;fill-rule:nonzero;stroke:none"
         d="m 2151.69,6087.51 c -36.21,0 -61.76,-7.57 -90.99,-16.22 l -2.78,-0.81 c -43.85,-12.97 -83.37,-54.23 -115.13,-87.39 -5.1,-5.31 -10.01,-10.43 -14.73,-15.24 -28.14,-28.61 -41.42,-78.08 -53.13,-121.74 -2.17,-8.04 -4.26,-15.85 -6.38,-23.23 -12.98,-45.42 -15.41,-89.31 -7.63,-138.15 6.09,-38.22 42.52,-82.43 69.14,-114.72 5.92,-7.19 11.44,-13.89 16.16,-19.94 19.58,-25.06 46.83,-44.7 78.37,-67.45 10.27,-7.4 20.91,-15.08 31.79,-23.31 33.66,-25.45 79.56,-24.07 124,-22.77 11.08,0.34 21.95,0.76 32.69,0.58 33.39,-0.13 57.33,12.13 80.63,24.09 13.3,6.83 25.85,13.29 39.57,17.17 21.32,6.02 30.43,17.99 40.99,31.86 6.18,8.12 12.56,16.5 21.76,24.11 20.13,16.62 41.25,51.83 61.66,85.87 l 8.67,14.42 c 19.78,32.67 21.3,66.88 23.07,106.49 0.28,6.27 0.56,12.65 0.93,19.13 1.36,24.57 0.19,106.73 -22.27,160.16 -17.21,40.92 -54.55,66.36 -84.57,86.78 -10.75,7.33 -20.9,14.25 -28.79,21.01 -22.8,19.54 -60.29,35.39 -111.43,47.13 -38.21,8.76 -67.31,12.17 -91.6,12.17 z m -1.57,-665.95 c -36.8,0 -72.91,3.97 -102.42,26.3 -10.78,8.15 -21.34,15.76 -31.51,23.1 -32.45,23.39 -60.46,43.59 -81.29,70.27 -4.66,5.95 -10.11,12.55 -15.95,19.64 -27.65,33.55 -65.53,79.51 -72.24,121.6 -8.1,50.99 -5.56,96.86 8.03,144.36 2.09,7.3 4.15,15.04 6.3,23.01 12.17,45.36 25.97,96.77 56.78,128.09 4.67,4.76 9.54,9.83 14.58,15.11 32.94,34.38 73.93,77.17 121.45,91.22 l 2.77,0.82 c 48.84,14.44 91,26.95 189.89,4.27 53.43,-12.26 92.98,-29.16 117.56,-50.22 7.28,-6.25 17.12,-12.94 27.54,-20.03 31.57,-21.51 70.87,-48.27 89.72,-93.12 28.01,-66.63 23.42,-165.54 23.36,-166.5 v -0.02 c -0.35,-6.43 -0.63,-12.75 -0.91,-18.98 -1.77,-39.84 -3.45,-77.48 -25.13,-113.28 l -8.65,-14.37 c -21.03,-35.09 -42.79,-71.38 -64.83,-89.57 -7.92,-6.54 -13.53,-13.91 -19.47,-21.73 -11.1,-14.58 -22.59,-29.65 -48.53,-37 -12.33,-3.48 -24.26,-9.61 -36.9,-16.1 -23.69,-12.18 -50.56,-25.49 -87.32,-25.69 -10.36,0.11 -21.24,-0.25 -32.13,-0.56 -10.21,-0.31 -20.48,-0.62 -30.7,-0.62" />
      <path
         inkscape:connector-curvature="0"
         id="path450"
         style="fill:#2d4058;fill-opacity:1;fill-rule:nonzero;stroke:none"
         d="m 2177.97,5511.21 c 20.57,-1.01 89.05,0.24 133.44,19.14 33.87,14.43 54.92,45.61 71.83,70.68 6.1,9.04 11.87,17.59 17.54,24.26 16.16,19.03 29.2,50.29 38.77,92.93 17.86,79.46 8.2,111.58 -4.01,152.26 l -0.69,2.29 c -10.92,36.33 -45.47,69.15 -73.23,95.52 -4.47,4.25 -8.8,8.35 -12.84,12.28 -23.85,23.25 -65.18,34.15 -101.64,43.76 -6.73,1.77 -13.24,3.5 -19.42,5.22 -37.86,10.67 -74.47,12.54 -115.12,5.87 -31.7,-5.18 -68.45,-35.75 -95.28,-58.08 -5.99,-4.97 -11.55,-9.6 -16.59,-13.57 -20.76,-16.37 -37.05,-39.17 -55.92,-65.58 -6.16,-8.63 -12.56,-17.57 -19.41,-26.73 -20.95,-27.95 -19.64,-66.18 -18.39,-103.15 0.32,-9.28 0.63,-18.45 0.6,-27.38 -0.08,-27.53 10.29,-47.52 20.33,-66.84 5.78,-11.16 11.26,-21.7 14.58,-33.28 5.02,-17.44 14.93,-24.92 26.41,-33.57 6.87,-5.18 13.97,-10.54 20.44,-18.31 13.89,-16.65 43.35,-34.14 71.85,-51.07 l 12.06,-7.19 c 27.15,-16.27 55.64,-17.42 88.63,-18.74 5.26,-0.21 10.63,-0.44 16.06,-0.72 z m 11.54,-14.55 c -7.55,0 -12.09,0.19 -12.27,0.21 -5.39,0.28 -10.7,0.49 -15.91,0.7 -33.49,1.35 -65.14,2.61 -95.43,20.78 l -12.02,7.16 c -29.54,17.53 -60.09,35.68 -75.54,54.21 -5.42,6.5 -11.57,11.14 -18.07,16.04 -12.4,9.35 -25.21,19.02 -31.56,41.09 -2.93,10.19 -8.09,20.1 -13.53,30.62 -10.34,19.89 -22.04,42.43 -21.95,73.52 0.03,8.74 -0.28,17.74 -0.59,26.84 -1.34,39.45 -2.73,80.26 21.24,112.25 6.8,9.06 13.13,17.93 19.24,26.48 19.5,27.29 36.33,50.86 58.71,68.5 4.94,3.9 10.41,8.45 16.3,13.35 28.1,23.37 66.58,55.39 102.14,61.19 42.82,7.02 81.39,5.03 121.35,-6.2 6.1,-1.72 12.54,-3.41 19.18,-5.17 38.19,-10.07 81.46,-21.46 108.02,-47.35 4,-3.91 8.27,-7.96 12.7,-12.17 28.99,-27.53 65.09,-61.8 77.09,-101.81 l 0.69,-2.29 c 12.32,-41 22.96,-76.4 4.29,-159.54 -10.09,-44.94 -24.17,-78.27 -41.86,-99.08 -5.15,-6.07 -10.7,-14.3 -16.58,-23 -17.96,-26.63 -40.32,-59.78 -78.11,-75.87 -43.05,-18.32 -102.22,-20.46 -127.53,-20.46" />
      <path
         inkscape:connector-curvature="0"
         id="path452"
         style="fill:#2d4058;fill-opacity:1;fill-rule:nonzero;stroke:none"
         d="m 2157.98,5992.65 c -25.69,0 -43.83,-5.37 -64.57,-11.52 l -1.96,-0.57 c -30.85,-9.11 -58.91,-38.41 -81.46,-61.97 -3.65,-3.8 -7.16,-7.47 -10.52,-10.89 -19.77,-20.09 -29.21,-55.22 -37.52,-86.2 -1.54,-5.76 -3.03,-11.33 -4.55,-16.61 -9.19,-32.18 -10.9,-63.29 -5.39,-97.91 4.26,-26.8 30.12,-58.16 49,-81.07 4.24,-5.15 8.2,-9.95 11.58,-14.29 13.83,-17.69 33.2,-31.66 55.64,-47.83 7.35,-5.31 14.98,-10.81 22.77,-16.71 23.51,-17.78 56.04,-16.82 87.42,-15.86 7.94,0.24 15.92,0.41 23.43,0.41 23.57,-0.79 40.28,8.55 56.7,17 9.6,4.94 18.69,9.59 28.68,12.42 14.59,4.11 20.91,12.43 28.22,22.04 4.49,5.9 9.14,12.01 15.91,17.59 14.12,11.67 29.13,36.7 43.64,60.9 l 6.21,10.32 c 13.87,22.93 14.95,47.16 16.21,75.22 0.2,4.49 0.4,9.04 0.66,13.68 0.96,17.45 0.14,75.79 -15.76,113.61 -12.09,28.72 -38.52,46.72 -59.77,61.18 -7.73,5.28 -15.03,10.25 -20.76,15.15 -16.05,13.76 -42.55,24.95 -78.8,33.27 -27.12,6.22 -47.77,8.64 -65.01,8.64 z m -1.25,-476.24 c -26.63,0 -52.82,2.89 -74.41,19.22 -7.69,5.82 -15.23,11.26 -22.5,16.49 -23.32,16.82 -43.47,31.35 -58.54,50.65 -3.33,4.24 -7.21,8.95 -11.38,14 -19.92,24.18 -47.22,57.29 -52.09,87.97 -5.86,36.75 -4.02,69.84 5.78,104.11 1.49,5.19 2.96,10.7 4.48,16.37 8.77,32.7 18.73,69.76 41.15,92.56 3.32,3.38 6.79,7 10.39,10.75 23.72,24.79 53.26,55.62 87.77,65.82 l 1.95,0.57 c 35.25,10.42 65.66,19.42 136.86,3.1 38.55,-8.84 67.14,-21.07 84.95,-36.36 5.12,-4.39 12.1,-9.14 19.5,-14.18 22.81,-15.52 51.2,-34.85 64.93,-67.49 20.2,-48.06 16.9,-119.28 16.86,-119.98 V 5760 c -0.25,-4.58 -0.45,-9.09 -0.65,-13.51 -1.29,-28.78 -2.49,-55.97 -18.27,-82.03 l -6.18,-10.28 c -15.84,-26.4 -30.79,-51.34 -46.82,-64.59 -5.49,-4.52 -9.43,-9.71 -13.62,-15.2 -8.13,-10.7 -16.55,-21.75 -35.75,-27.18 -8.61,-2.43 -17.06,-6.77 -26.02,-11.37 -16.97,-8.72 -36.19,-18.59 -62.57,-18.59 -1.08,0 -2.08,0 -3.14,0.01 -6.71,0 -13.61,-0.21 -20.56,-0.42 -7.35,-0.22 -14.75,-0.43 -22.12,-0.43" />
      <path
         inkscape:connector-curvature="0"
         id="path454"
         style="fill:#2d4058;fill-opacity:1;fill-rule:nonzero;stroke:none"
         d="m 2162.83,5953.67 c -10.3,0 -20.8,-0.89 -31.74,-2.68 -21.62,-3.53 -47.1,-24.72 -65.7,-40.19 -4.21,-3.51 -8.14,-6.78 -11.69,-9.57 -14.31,-11.28 -25.65,-27.14 -38.76,-45.52 -4.34,-6.05 -8.82,-12.34 -13.64,-18.75 -14.23,-19 -13.33,-45.41 -12.45,-70.94 0.23,-6.53 0.44,-12.97 0.42,-19.25 -0.05,-18.76 7.09,-32.53 14,-45.84 4.11,-7.91 7.99,-15.38 10.37,-23.68 3.32,-11.54 9.68,-16.34 17.72,-22.41 4.91,-3.7 10,-7.53 14.69,-13.18 9.47,-11.37 29.94,-23.53 49.74,-35.26 l 8.5,-5.09 c 18.59,-11.13 38.31,-11.91 61.17,-12.83 l 11.19,-0.49 c 14.29,-0.73 61.71,0.11 92.54,13.23 23.15,9.85 37.71,31.43 49.39,48.77 4.31,6.37 8.38,12.41 12.43,17.17 11.1,13.08 20.09,34.67 26.71,64.18 12.38,55.1 5.69,77.37 -2.78,105.55 l -0.49,1.64 c -7.48,24.93 -31.47,47.7 -50.75,66.01 -3.13,2.98 -6.16,5.85 -8.98,8.6 -16.3,15.9 -44.94,23.45 -70.21,30.12 -4.75,1.25 -9.34,2.45 -13.69,3.68 -16.05,4.5 -31.76,6.73 -47.99,6.73 z m 21.93,-380.18 c -5.39,0 -8.66,0.14 -8.84,0.15 l -11.04,0.48 c -23.78,0.96 -46.25,1.85 -67.97,14.87 l -8.47,5.04 c -21.79,12.94 -42.38,25.16 -53.43,38.42 -3.63,4.37 -7.85,7.56 -12.31,10.91 -8.54,6.46 -18.22,13.76 -22.87,29.92 -1.99,6.92 -5.55,13.77 -9.32,21.03 -7.34,14.16 -15.68,30.21 -15.61,52.52 0.01,6.09 -0.2,12.35 -0.42,18.7 -0.96,28.02 -1.96,57.01 15.31,80.05 4.75,6.33 9.17,12.52 13.44,18.5 13.77,19.26 25.65,35.9 41.57,48.43 3.45,2.73 7.28,5.91 11.4,9.34 19.87,16.54 47.08,39.17 72.58,43.32 30.26,4.97 57.6,3.57 85.93,-4.39 4.28,-1.21 8.8,-2.4 13.46,-3.62 26.98,-7.12 57.57,-15.18 76.57,-33.71 2.79,-2.72 5.77,-5.56 8.86,-8.49 20.51,-19.48 46.03,-43.71 54.61,-72.3 l 0.49,-1.63 c 8.72,-29.01 16.26,-54.07 3.06,-112.83 -7.15,-31.81 -17.18,-55.48 -29.8,-70.34 -3.53,-4.15 -7.37,-9.87 -11.46,-15.92 -12.75,-18.91 -28.61,-42.42 -55.69,-53.95 -30.47,-12.96 -72.09,-14.5 -90.05,-14.5" />
      <path
         inkscape:connector-curvature="0"
         id="path456"
         style="fill:#2d4058;fill-opacity:1;fill-rule:nonzero;stroke:none"
         d="m 2164.11,5899.81 c -15.37,0 -26.21,-3.2 -38.6,-6.87 -19.35,-5.71 -36.17,-23.29 -49.7,-37.4 l -6.47,-6.71 c -11.54,-11.73 -17.19,-32.79 -22.17,-51.37 -0.96,-3.52 -1.87,-6.94 -2.79,-10.17 -5.51,-19.21 -6.53,-37.8 -3.23,-58.53 2.47,-15.6 17.97,-34.38 29.27,-48.11 2.62,-3.17 5.05,-6.14 7.14,-8.8 8.17,-10.46 19.83,-18.87 33.32,-28.6 4.52,-3.26 9.21,-6.64 14.01,-10.28 13.55,-10.25 32.88,-9.66 51.55,-9.11 4.9,0.14 9.74,0.23 14.42,0.25 h 0.4 c 13.3,0 23.27,5.11 32.9,10.07 5.72,2.95 11.65,5.98 18.02,7.79 7.99,2.26 11.25,6.53 15.75,12.45 2.71,3.56 5.77,7.58 10.15,11.19 8.26,6.83 17.29,21.89 26.03,36.48 l 3.78,6.27 c 8.1,13.38 8.74,27.84 9.49,44.57 l 0.41,8.37 c 0.57,10.49 0.09,45.47 -9.41,68.1 -7.05,16.77 -22.8,27.49 -35.46,36.11 -4.94,3.36 -9.44,6.44 -12.92,9.42 -9.45,8.1 -25.23,14.73 -46.89,19.7 -16.28,3.73 -28.67,5.18 -39,5.18 z m -0.42,-290.58 c -16.51,0 -33.62,1.81 -47.48,12.29 -4.7,3.55 -9.31,6.88 -13.74,10.08 -13.77,9.94 -26.8,19.31 -36.24,31.4 -2.02,2.58 -4.38,5.43 -6.9,8.51 -12.36,14.99 -29.29,35.53 -32.39,55 -3.64,22.87 -2.49,43.44 3.62,64.74 0.9,3.15 1.8,6.5 2.72,9.94 5.44,20.3 11.61,43.29 25.81,57.72 l 6.34,6.57 c 14.7,15.35 32.99,34.45 54.75,40.88 23.11,6.84 41.99,12.4 86.15,2.28 23.96,-5.49 41.8,-13.17 53.02,-22.79 3.15,-2.69 7.2,-5.43 11.65,-8.46 13.48,-9.17 31.94,-21.73 40.63,-42.43 12.58,-29.93 10.53,-74.01 10.5,-74.45 l -0.39,-8.22 c -0.8,-17.93 -1.56,-34.86 -11.55,-51.37 l -3.75,-6.23 c -9.79,-16.33 -19.04,-31.76 -29.2,-40.17 -3.11,-2.55 -5.41,-5.59 -7.86,-8.81 -5,-6.56 -10.67,-14.02 -23.3,-17.58 -4.98,-1.41 -10.02,-4 -15.35,-6.74 -10.76,-5.52 -22.61,-11.78 -39.99,-11.65 -4.53,0.03 -9.16,-0.11 -13.87,-0.25 -4.29,-0.13 -8.71,-0.26 -13.18,-0.26" />
      <path
         inkscape:connector-curvature="0"
         id="path458"
         style="fill:#2d4058;fill-opacity:1;fill-rule:nonzero;stroke:none"
         d="m 2176,5684.87 c 6.52,-0.25 28.45,0.06 42.51,6.03 10.01,4.26 16.34,13.63 21.92,21.88 2.22,3.29 4.24,6.25 6.2,8.57 4.83,5.68 8.96,15.72 11.94,29.01 5.7,25.34 2.78,35.06 -1.25,48.49 -3.53,11.73 -14.58,22.21 -23.45,30.65 l -4.32,4.13 c -7.09,6.92 -20.29,10.39 -31.94,13.45 l -6.5,1.75 c -11.98,3.39 -23.54,3.95 -36.43,1.86 -9.32,-1.53 -21.03,-11.26 -29.58,-18.38 -2.05,-1.7 -3.95,-3.27 -5.66,-4.62 -6.41,-5.05 -11.68,-12.44 -17.79,-20.99 -2.07,-2.9 -4.22,-5.92 -6.52,-9 -6.01,-8.01 -5.62,-19.41 -5.21,-31.49 0.11,-3.15 0.22,-6.27 0.21,-9.29 -0.03,-8.04 3.03,-13.93 6.26,-20.14 1.95,-3.78 3.99,-7.68 5.22,-12.02 1.24,-4.3 3.46,-5.97 7.12,-8.73 2.4,-1.82 5.11,-3.86 7.64,-6.9 4.1,-4.91 13.57,-10.54 22.74,-15.99 l 4.1,-2.44 c 8.03,-4.8 16.56,-5.15 27.37,-5.59 z m 3.53,-14.41 c -2.63,0 -4.2,0.05 -4.26,0.07 l -5.26,0.22 c -11.84,0.48 -23.01,0.93 -34.19,7.62 l -4.05,2.42 c -10.69,6.34 -20.77,12.32 -26.45,19.15 -1.46,1.75 -3.22,3.09 -5.25,4.62 -4.33,3.25 -9.7,7.32 -12.27,16.22 -0.85,2.97 -2.47,6.08 -4.17,9.38 -3.53,6.78 -7.91,15.23 -7.88,26.79 0.02,2.86 -0.1,5.8 -0.19,8.76 -0.47,13.38 -0.99,28.55 8.05,40.61 2.24,2.99 4.33,5.91 6.34,8.74 6.47,9.05 12.56,17.59 20.59,23.92 1.63,1.28 3.43,2.78 5.36,4.39 9.83,8.16 23.28,19.35 36.45,21.5 15.05,2.47 28.58,1.76 42.65,-2.19 l 6.27,-1.69 c 12.69,-3.34 28.5,-7.51 38.3,-17.06 l 4.2,-4.01 c 10.11,-9.6 22.7,-21.55 27.08,-36.15 4.55,-15.15 8.27,-27.53 1.75,-56.55 -3.55,-15.78 -8.59,-27.61 -15,-35.18 -1.69,-1.97 -3.37,-4.51 -5.25,-7.3 -6.03,-8.92 -14.28,-21.14 -28.22,-27.07 -15.18,-6.46 -35.81,-7.21 -44.6,-7.21" />
      <path
         inkscape:connector-curvature="0"
         id="path460"
         style="fill:#2d4058;fill-opacity:1;fill-rule:nonzero;stroke:none"
         d="m 2421.7,6363.45 c 0.67,-37.14 -6.17,-34.74 -21.56,-65.89 -15.39,-31.15 -44.46,-92.24 -44.46,-92.24 l -94.06,-123.4 c 0,0 74.33,58.44 135.1,155.74 60.77,97.3 76.95,109.02 76.95,109.02 l -51.97,16.77" />
      <path
         inkscape:connector-curvature="0"
         id="path462"
         style="fill:#2d4058;fill-opacity:1;fill-rule:nonzero;stroke:none"
         d="m 2035.58,5128.57 c -8.56,36.14 -1.36,35.26 7.05,68.96 8.41,33.71 23.81,99.6 23.81,99.6 l 65.65,140.57 c 0,0 -60.19,-72.91 -98.87,-180.91 -38.67,-108 -51.99,-122.89 -51.99,-122.89 l 54.35,-5.33" />
    </g>
    <path
       sodipodi:nodetypes="cccccc"
       inkscape:connector-curvature="0"
       id="path724-6"
       style="opacity:0.98999999;fill:#2d4058;fill-opacity:1;fill-rule:nonzero;stroke:none;stroke-width:0.04464618"
       d="m 171.40464,71.423408 4.91109,-11.890157 H 48.38036 v 23.780326 h 127.93537 l -4.91109,-11.890169"
       inkscape:export-xdpi="96"
       inkscape:export-ydpi="96" />
    <path
       inkscape:connector-curvature="0"
       id="path730-4"
       style="opacity:0.98999999;fill:#ffffff;fill-opacity:1;fill-rule:nonzero;stroke:none;stroke-width:0.04464618"
       d="m 160.82826,66.531763 1.04785,3.225231 h 3.39132 l -2.7435,1.993447 1.04784,3.225244 -2.74351,-1.99346 -2.74396,1.99346 1.04785,-3.225244 -2.74351,-1.993447 h 3.39132 l 1.0483,-3.225231"
       inkscape:export-xdpi="96"
       inkscape:export-ydpi="96" />
  </g>
</svg>
